# xmcd CD database file
#
# Track frame offsets:
#	150
#	18992
#	37595
#	56682
#
# Disc length: 1001 seconds
#
# Revision: 0
# Processed by: cddbd v1.5.1PL0 Copyright (c) Steve Scherf et al.
# Submitted via: CDex 1.51
#
DISCID=2303e704
DTITLE=森川智之/久川綾 - 天翔/DREAM OF YOU　黄龍の耳テーマソング
DYEAR=1995
DGENRE=JPop
TTITLE0=天翔
TTITLE1=DREAM OF YOU
TTITLE2=天翔 off vocal
TTITLE3=DREAM OF YOU off vocal
EXTD=YEAR: 1995
EXTT0=
EXTT1=
EXTT2=
EXTT3=
PLAYORDER=
